<?xml version="1.0" encoding="utf-8"?>
<!-- Generator: Adobe Illustrator 16.0.0, SVG Export Plug-In . SVG Version: 6.00 Build 0)  -->
<!DOCTYPE svg PUBLIC "-//W3C//DTD SVG 1.1//EN" "http://www.w3.org/Graphics/SVG/1.1/DTD/svg11.dtd">
<svg version="1.1" id="Layer_1" xmlns="http://www.w3.org/2000/svg" xmlns:xlink="http://www.w3.org/1999/xlink" x="0px" y="0px"
	 width="738px" height="329.5px" viewBox="0 0 738 329.5" enable-background="new 0 0 738 329.5" xml:space="preserve">
<path id="shape" fill="#BDB289" d="M40.344,9c-4.947,0.224-9.354,2.27-12.734,6.229C12.997,32.387,14.411,136.234,0,168.718
	c14.41,32.818,12.996,130.3,27.612,147.463c3.379,3.954,7.784,6.006,12.733,6.218c0.673,0.023,656.636,0.023,657.156,0.018
	c5.1-0.227,9.508-2.278,12.887-6.235C725.004,299.018,723.59,201.539,738,169.055c-14.41-32.818-12.996-136.663-27.611-153.82
	c-3.377-3.959-7.781-6.008-12.732-6.229H40.344V9z"/>
<path id="shape_1_" fill="#FFFFFF" d="M48.039,14.496c-4.979,0.215-9.413,2.15-12.813,5.901
	C20.522,36.667,21.943,138.311,7.445,169.102c14.5,31.109,13.077,126.716,27.784,142.986c3.399,3.748,7.832,5.692,12.813,5.889
	c0.676,0.029,641.684,0.029,642.209,0.013c5.133-0.209,9.568-2.153,12.967-5.901c14.71-16.271,13.284-111.877,27.783-142.664
	c-14.499-31.096-13.075-132.754-27.783-149.018c-3.395-3.75-7.83-5.695-12.81-5.902L48.039,14.496L48.039,14.496z"/>
</svg>
