<?xml version="1.0" encoding="utf-8"?>
<!-- Generator: Adobe Illustrator 16.0.0, SVG Export Plug-In . SVG Version: 6.00 Build 0)  -->
<!DOCTYPE svg PUBLIC "-//W3C//DTD SVG 1.1//EN" "http://www.w3.org/Graphics/SVG/1.1/DTD/svg11.dtd">
<svg version="1.1" id="Layer_1" xmlns="http://www.w3.org/2000/svg" xmlns:xlink="http://www.w3.org/1999/xlink" x="0px" y="0px"
	 width="738px" height="112px" viewBox="615.188 122.75 738 112" enable-background="new 615.188 122.75 738 112"
	 xml:space="preserve">
<title>Group</title>
<desc>Created with Sketch.</desc>
<g id="Symbols">
	<g id="Group">
		<path id="shape" fill="#BDB289" d="M655.531,124.75c-4.947,0.077-9.354,0.782-12.734,2.146
			c-14.613,5.912-13.199,41.697-27.61,52.89c14.411,11.309,12.997,44.9,27.613,50.813c3.379,1.363,7.784,2.07,12.733,2.143
			c0.673,0.008,656.637,0.008,657.156,0.006c5.1-0.078,9.508-0.785,12.887-2.148c14.615-5.914,13.201-39.504,27.611-50.697
			c-14.41-11.309-12.996-47.093-27.611-53.005c-3.377-1.364-7.781-2.07-12.732-2.146H655.531z"/>
		<path id="shape_1_" fill="#FFFFFF" d="M664.993,127.669c-4.948,0.072-9.354,0.724-12.733,1.986
			c-14.614,5.477-13.2,39.691-27.61,50.055c14.411,10.472,12.996,42.653,27.612,48.13c3.379,1.262,7.784,1.916,12.733,1.982
			c0.672,0.01,637.711,0.01,638.234,0.004c5.1-0.07,9.508-0.725,12.885-1.986c14.619-5.477,13.203-37.658,27.613-48.022
			c-14.41-10.467-12.996-44.685-27.613-50.16c-3.373-1.262-7.781-1.917-12.73-1.986L664.993,127.669L664.993,127.669z"/>
	</g>
</g>
</svg>
