<?xml version="1.0" encoding="utf-8"?>
<!-- Generator: Adobe Illustrator 16.0.0, SVG Export Plug-In . SVG Version: 6.00 Build 0)  -->
<!DOCTYPE svg PUBLIC "-//W3C//DTD SVG 1.1//EN" "http://www.w3.org/Graphics/SVG/1.1/DTD/svg11.dtd">
<svg version="1.1" id="Layer_1" xmlns="http://www.w3.org/2000/svg" xmlns:xlink="http://www.w3.org/1999/xlink" x="0px" y="0px"
	 width="1611.75px" height="357.5px" viewBox="-1021.25 0 1611.75 357.5" enable-background="new -1021.25 0 1611.75 357.5"
	 xml:space="preserve">
<title>Group</title>
<desc>Created with Sketch.</desc>
<g id="Symbols">
	<g id="match_x2F_matchbox_x2F_live">
		<g id="Group">
			<path id="shape" fill="#BDB289" d="M-933.129,31.25c-10.806,0.213-20.431,2.173-27.813,5.962
				c-31.919,16.424-28.832,115.825-60.308,146.92c31.477,31.41,28.389,124.721,60.313,141.148c7.382,3.786,17.002,5.748,27.812,5.95
				c1.472,0.023,1434.278,0.023,1435.414,0.013c11.143-0.215,20.768-2.177,28.149-5.963
				c31.926-16.428,28.834-109.738,60.313-140.827c-31.479-31.417-28.388-130.817-60.313-147.241
				c-7.374-3.789-16.999-5.749-27.811-5.962H-933.129z"/>
			<path id="shape_1_" fill="#0F3F79" d="M-912.462,39.358c-10.807,0.199-20.431,2.011-27.813,5.517
				c-31.92,15.213-28.831,110.253-60.308,139.042c31.477,29.086,28.387,118.483,60.312,133.695
				c7.382,3.504,17.002,5.324,27.813,5.507c1.468,0.025,1392.941,0.025,1394.082,0.011c11.14-0.195,20.767-2.014,28.147-5.518
				c31.926-15.212,28.838-104.609,60.314-133.397c-31.477-29.077-28.389-124.126-60.314-139.334c-7.373-3.506-17-5.323-27.809-5.517
				L-912.462,39.358L-912.462,39.358z"/>
		</g>
	</g>
</g>
</svg>
